<svg width="24" height="24" viewBox="0 0 24 24" fill="none" xmlns="http://www.w3.org/2000/svg">
<path d="M11.9998 14.2501C11.1334 14.2509 10.2804 14.0369 9.51699 13.6274C8.75356 13.2179 8.10353 12.6255 7.625 11.9034L8.8745 11.0731C9.21655 11.5889 9.68094 12.012 10.2263 12.3047C10.7716 12.5974 11.3808 12.7506 11.9998 12.7506C12.6187 12.7506 13.2279 12.5974 13.7732 12.3047C14.3186 12.012 14.783 11.5889 15.125 11.0731L16.3745 11.9034C15.896 12.6255 15.2459 13.2179 14.4825 13.6274C13.7191 14.0369 12.8661 14.2509 11.9998 14.2501Z" fill="#00A2FF"/>
<path d="M13.302 22.5L12 21.75L15 16.5H19.5C19.6971 16.5003 19.8923 16.4617 20.0744 16.3864C20.2565 16.3111 20.422 16.2007 20.5613 16.0613C20.7007 15.922 20.8111 15.7565 20.8864 15.5744C20.9617 15.3923 21.0003 15.1971 21 15V4.5C21.0003 4.30293 20.9617 4.10775 20.8864 3.92562C20.8111 3.7435 20.7007 3.57803 20.5613 3.43868C20.422 3.29933 20.2565 3.18885 20.0744 3.11358C19.8923 3.0383 19.6971 2.9997 19.5 3H4.5C4.30293 2.9997 4.10775 3.0383 3.92562 3.11358C3.7435 3.18885 3.57803 3.29933 3.43868 3.43868C3.29933 3.57803 3.18885 3.7435 3.11358 3.92562C3.0383 4.10775 2.9997 4.30293 3 4.5V15C2.9997 15.1971 3.0383 15.3923 3.11358 15.5744C3.18885 15.7565 3.29933 15.922 3.43868 16.0613C3.57803 16.2007 3.7435 16.3111 3.92562 16.3864C4.10775 16.4617 4.30293 16.5003 4.5 16.5H11.25V18H4.5C3.70435 18 2.94129 17.6839 2.37868 17.1213C1.81607 16.5587 1.5 15.7956 1.5 15V4.5C1.5 3.70435 1.81607 2.94129 2.37868 2.37868C2.94129 1.81607 3.70435 1.5 4.5 1.5H19.5C20.2956 1.5 21.0587 1.81607 21.6213 2.37868C22.1839 2.94129 22.5 3.70435 22.5 4.5V15C22.5 15.7956 22.1839 16.5587 21.6213 17.1213C21.0587 17.6839 20.2956 18 19.5 18H15.8738L13.302 22.5Z" fill="#00A2FF"/>
</svg>
