<svg preserveAspectRatio="none" width="100%" height="100%" overflow="visible" style="display: block;" viewBox="0 0 16.4188 21.3028" fill="none" xmlns="http://www.w3.org/2000/svg">
<g id="Vector">
<path d="M1.8227 0.912302C1.8227 1.41377 1.41229 1.8246 0.911349 1.8246C0.410409 1.8246 0 1.41377 0 0.912302C0 0.410838 0.410409 0 0.911349 0C1.41229 0 1.8227 0.410838 1.8227 0.912302Z" fill="var(--fill-0, white)"/>
<path d="M4.25035 0.912302C4.25035 1.41377 3.84597 1.8246 3.339 1.8246C2.83202 1.8246 2.42765 1.41377 2.42765 0.912302C2.42765 0.410838 2.83806 0 3.339 0C3.83994 0 4.25035 0.410838 4.25035 0.912302Z" fill="var(--fill-0, white)"/>
<path d="M6.69308 0.912302C6.69308 1.41377 6.28267 1.8246 5.78173 1.8246C5.28079 1.8246 4.87038 1.41377 4.87038 0.912302C4.87038 0.410838 5.28079 0 5.78173 0C6.28267 0 6.69308 0.410838 6.69308 0.912302Z" fill="var(--fill-0, white)"/>
<path d="M4.25035 3.34702C4.25035 3.85452 3.84597 4.25932 3.339 4.25932C2.83202 4.25932 2.42765 3.84848 2.42765 3.34702C2.42765 2.84556 2.83806 2.43472 3.339 2.43472C3.83994 2.43472 4.25035 2.84556 4.25035 3.34702Z" fill="var(--fill-0, white)"/>
<path d="M6.69308 3.34702C6.69308 3.85452 6.28267 4.25932 5.78173 4.25932C5.28079 4.25932 4.87038 3.84848 4.87038 3.34702C4.87038 2.84556 5.28079 2.43472 5.78173 2.43472C6.28267 2.43472 6.69308 2.84556 6.69308 3.34702Z" fill="var(--fill-0, white)"/>
<path d="M9.11319 3.34702C9.11319 3.85452 8.70881 4.25932 8.20184 4.25932C7.69486 4.25932 7.29049 3.84848 7.29049 3.34702C7.29049 2.84556 7.7009 2.43472 8.20184 2.43472C8.70278 2.43472 9.11319 2.84556 9.11319 3.34702Z" fill="var(--fill-0, white)"/>
<path d="M6.69308 5.78221C6.69308 6.28971 6.28267 6.70055 5.78173 6.70055C5.28079 6.70055 4.87038 6.28971 4.87038 5.78221C4.87038 5.2747 5.28079 4.86991 5.78173 4.86991C6.28267 4.86991 6.69308 5.2747 6.69308 5.78221Z" fill="var(--fill-0, white)"/>
<path d="M9.11319 5.78221C9.11319 6.28971 8.70881 6.70055 8.20184 6.70055C7.69486 6.70055 7.29049 6.28971 7.29049 5.78221C7.29049 5.2747 7.7009 4.86991 8.20184 4.86991C8.70278 4.86991 9.11319 5.2747 9.11319 5.78221Z" fill="var(--fill-0, white)"/>
<path d="M11.5484 5.78221C11.5484 6.28971 11.144 6.70055 10.637 6.70055C10.1301 6.70055 9.72568 6.28971 9.72568 5.78221C9.72568 5.2747 10.1361 4.86991 10.637 4.86991C11.138 4.86991 11.5484 5.2747 11.5484 5.78221Z" fill="var(--fill-0, white)"/>
<path d="M9.11319 8.21693C9.11319 8.71839 8.70881 9.12923 8.20184 9.12923C7.69486 9.12923 7.29049 8.71839 7.29049 8.21693C7.29049 7.71546 7.7009 7.30462 8.20184 7.30462C8.70278 7.30462 9.11319 7.71546 9.11319 8.21693Z" fill="var(--fill-0, white)"/>
<path d="M11.5484 8.21693C11.5484 8.71839 11.144 9.12923 10.637 9.12923C10.1301 9.12923 9.72568 8.71839 9.72568 8.21693C9.72568 7.71546 10.1361 7.30462 10.637 7.30462C11.138 7.30462 11.5484 7.71546 11.5484 8.21693Z" fill="var(--fill-0, white)"/>
<path d="M13.9911 8.21693C13.9911 8.71839 13.5807 9.12923 13.0798 9.12923C12.5788 9.12923 12.1684 8.71839 12.1684 8.21693C12.1684 7.71546 12.5728 7.30462 13.0798 7.30462C13.5867 7.30462 13.9911 7.71546 13.9911 8.21693Z" fill="var(--fill-0, white)"/>
<path d="M9.11319 13.0864C9.11319 13.5878 8.70881 13.9987 8.20184 13.9987C7.69486 13.9987 7.29049 13.5878 7.29049 13.0864C7.29049 12.5849 7.7009 12.1741 8.20184 12.1741C8.70278 12.1741 9.11319 12.5849 9.11319 13.0864Z" fill="var(--fill-0, white)"/>
<path d="M11.5484 13.0864C11.5484 13.5878 11.144 13.9987 10.637 13.9987C10.1301 13.9987 9.72568 13.5878 9.72568 13.0864C9.72568 12.5849 10.1361 12.1741 10.637 12.1741C11.138 12.1741 11.5484 12.5849 11.5484 13.0864Z" fill="var(--fill-0, white)"/>
<path d="M13.9911 13.0864C13.9911 13.5878 13.5807 13.9987 13.0798 13.9987C12.5788 13.9987 12.1684 13.5878 12.1684 13.0864C12.1684 12.5849 12.5728 12.1741 13.0798 12.1741C13.5867 12.1741 13.9911 12.5849 13.9911 13.0864Z" fill="var(--fill-0, white)"/>
<path d="M6.69308 15.5211C6.69308 16.0225 6.28267 16.4334 5.78173 16.4334C5.28079 16.4334 4.87038 16.0286 4.87038 15.5211C4.87038 15.0136 5.28079 14.6088 5.78173 14.6088C6.28267 14.6088 6.69308 15.0196 6.69308 15.5211Z" fill="var(--fill-0, white)"/>
<path d="M11.5484 10.6516C11.5484 11.1591 11.144 11.5639 10.637 11.5639C10.1301 11.5639 9.72568 11.1531 9.72568 10.6516C9.72568 10.1502 10.1361 9.73934 10.637 9.73934C11.138 9.73934 11.5484 10.1441 11.5484 10.6516Z" fill="var(--fill-0, white)"/>
<path d="M13.9911 10.6516C13.9911 11.1591 13.5807 11.5639 13.0798 11.5639C12.5788 11.5639 12.1684 11.1531 12.1684 10.6516C12.1684 10.1502 12.5728 9.73934 13.0798 9.73934C13.5867 9.73934 13.9911 10.1441 13.9911 10.6516Z" fill="var(--fill-0, white)"/>
<path d="M16.4188 10.6516C16.4188 11.1591 16.0083 11.5639 15.5074 11.5639C15.0065 11.5639 14.5961 11.1531 14.5961 10.6516C14.5961 10.1502 15.0065 9.73934 15.5074 9.73934C16.0083 9.73934 16.4188 10.1441 16.4188 10.6516Z" fill="var(--fill-0, white)"/>
<path d="M9.11319 15.5211C9.11319 16.0225 8.70881 16.4334 8.20184 16.4334C7.69486 16.4334 7.29049 16.0286 7.29049 15.5211C7.29049 15.0136 7.7009 14.6088 8.20184 14.6088C8.70278 14.6088 9.11319 15.0196 9.11319 15.5211Z" fill="var(--fill-0, white)"/>
<path d="M11.5484 15.5211C11.5484 16.0225 11.144 16.4334 10.637 16.4334C10.1301 16.4334 9.72568 16.0286 9.72568 15.5211C9.72568 15.0136 10.1361 14.6088 10.637 14.6088C11.138 14.6088 11.5484 15.0196 11.5484 15.5211Z" fill="var(--fill-0, white)"/>
<path d="M4.25035 17.9563C4.25035 18.4577 3.84597 18.8686 3.339 18.8686C2.83202 18.8686 2.42765 18.4577 2.42765 17.9563C2.42765 17.4548 2.83806 17.044 3.339 17.044C3.83994 17.044 4.25035 17.4548 4.25035 17.9563Z" fill="var(--fill-0, white)"/>
<path d="M6.69308 17.9563C6.69308 18.4577 6.28267 18.8686 5.78173 18.8686C5.28079 18.8686 4.87038 18.4577 4.87038 17.9563C4.87038 17.4548 5.28079 17.044 5.78173 17.044C6.28267 17.044 6.69308 17.4548 6.69308 17.9563Z" fill="var(--fill-0, white)"/>
<path d="M9.11319 17.9563C9.11319 18.4577 8.70881 18.8686 8.20184 18.8686C7.69486 18.8686 7.29049 18.4577 7.29049 17.9563C7.29049 17.4548 7.7009 17.044 8.20184 17.044C8.70278 17.044 9.11319 17.4548 9.11319 17.9563Z" fill="var(--fill-0, white)"/>
<path d="M1.8227 20.3905C1.8227 20.892 1.41229 21.3028 0.911349 21.3028C0.410409 21.3028 0 20.892 0 20.3905C0 19.889 0.410409 19.4782 0.911349 19.4782C1.41229 19.4782 1.8227 19.889 1.8227 20.3905Z" fill="var(--fill-0, white)"/>
<path d="M4.25035 20.3905C4.25035 20.892 3.84597 21.3028 3.339 21.3028C2.83202 21.3028 2.42765 20.892 2.42765 20.3905C2.42765 19.889 2.83806 19.4782 3.339 19.4782C3.83994 19.4782 4.25035 19.889 4.25035 20.3905Z" fill="var(--fill-0, white)"/>
<path d="M6.69308 20.3905C6.69308 20.892 6.28267 21.3028 5.78173 21.3028C5.28079 21.3028 4.87038 20.892 4.87038 20.3905C4.87038 19.889 5.28079 19.4782 5.78173 19.4782C6.28267 19.4782 6.69308 19.889 6.69308 20.3905Z" fill="var(--fill-0, white)"/>
</g>
</svg>
